<svg xmlns="http://www.w3.org/2000/svg" width="284.8212890625" height="270.88201904296875" viewBox="-36.693817138671875 -40.77677917480469 284.8212890625 270.88201904296875"><title>Neo4j Graph Visualization</title><desc>Created using Neo4j (http://www.neo4j.com/)</desc><g class="layer relationships"><g class="relationship" transform="translate(138.66261470199626 201.10524953787822) rotate(253.93840861996392)"><path class="outline" fill="#A5ABB6" stroke="none" d="M 25 0.5 L 31.064094837855727 0.5 L 31.064094837855727 -0.5 L 25 -0.5 Z M 76.63076048726978 0.5 L 82.69485532512552 0.5 L 82.69485532512552 3.5 L 89.69485532512552 0 L 82.69485532512552 -3.5 L 82.69485532512552 -0.5 L 76.63076048726978 -0.5 Z"/><text text-anchor="middle" pointer-events="none" font-size="8px" fill="#000000" x="53.84742766256276" y="3" transform="rotate(180 53.84742766256276 0)" font-family="sans-serif">ACTED_IN</text></g><g class="relationship" transform="translate(219.12744962614437 112.58068578050135) rotate(190.942992043637)"><path class="outline" fill="#A5ABB6" stroke="none" d="M 25 0.5 L 30.854388636552642 0.5 L 30.854388636552642 -0.5 L 25 -0.5 Z M 76.4210542859667 0.5 L 82.27544292251935 0.5 L 82.27544292251935 3.5 L 89.27544292251935 0 L 82.27544292251935 -3.5 L 82.27544292251935 -0.5 L 76.4210542859667 -0.5 Z"/><text text-anchor="middle" pointer-events="none" font-size="8px" fill="#000000" x="53.63772146125967" y="3" transform="rotate(180 53.63772146125967 0)" font-family="sans-serif">ACTED_IN</text></g><g class="relationship" transform="translate(177.09990226331718 -0.5940050204388398) rotate(487.4896410216584)"><path class="outline" fill="#A5ABB6" stroke="none" d="M 25 0.5 L 31.36364408610296 0.5 L 31.36364408610296 -0.5 L 25 -0.5 Z M 76.93030973551703 0.5 L 83.29395382161998 0.5 L 83.29395382161998 3.5 L 90.29395382161998 0 L 83.29395382161998 -3.5 L 83.29395382161998 -0.5 L 76.93030973551703 -0.5 Z"/><text text-anchor="middle" pointer-events="none" font-size="8px" fill="#000000" x="54.14697691080999" y="3" transform="rotate(180 54.14697691080999 0)" font-family="sans-serif">ACTED_IN</text></g><g class="relationship" transform="translate(56.86896233598624 -11.776778994873105) rotate(424.00530260708535)"><path class="outline" fill="#A5ABB6" stroke="none" d="M 25 0.5 L 35.72634192066354 0.5 L 35.72634192066354 -0.5 L 25 -0.5 Z M 71.49300833301706 0.5 L 82.2193502536806 0.5 L 82.2193502536806 3.5 L 89.2193502536806 0 L 82.2193502536806 -3.5 L 82.2193502536806 -0.5 L 71.49300833301706 -0.5 Z"/><text text-anchor="middle" pointer-events="none" font-size="8px" fill="#000000" x="53.6096751268403" y="3" font-family="sans-serif">WROTE</text></g><g class="relationship" transform="translate(-7.69381502363156 88.96749913287054) rotate(360.9596543592932)"><path class="outline" fill="#A5ABB6" stroke="none" d="M 25 0.5 L 35.9365785572643 0.5 L 35.9365785572643 -0.5 L 25 -0.5 Z M 71.70324496961781 0.5 L 82.63982352688211 0.5 L 82.63982352688211 3.5 L 89.63982352688211 0 L 82.63982352688211 -3.5 L 82.63982352688211 -0.5 L 71.70324496961781 -0.5 Z"/><text text-anchor="middle" pointer-events="none" font-size="8px" fill="#000000" x="53.819911763441056" y="3" font-family="sans-serif">WROTE</text></g><g class="relationship" transform="translate(35.98904906068746 183.5269325731564) rotate(307.44396546285367)"><path class="outline" fill="#A5ABB6" stroke="none" d="M 25 0.5 L 31.390953919646485 0.5 L 31.390953919646485 -0.5 L 25 -0.5 Z M 78.29095544552538 0.5 L 84.68190936517188 0.5 L 84.68190936517188 3.5 L 91.68190936517188 0 L 84.68190936517188 -3.5 L 84.68190936517188 -0.5 L 78.29095544552538 -0.5 Z"/><text text-anchor="middle" pointer-events="none" font-size="8px" fill="#000000" x="54.84095468258594" y="3" font-family="sans-serif">DIRECTED</text></g></g><g class="layer nodes"><g class="node" transform="translate(138.66261470199626,201.10524953787822)"><circle class="outline" cx="0" cy="0" r="25" fill="#F79767" stroke="#f36924" stroke-width="2px"/><text text-anchor="middle" pointer-events="none" font-family="sans-serif" dy="1.5625" font-size="25" fill="#FFFFFF"/><text text-anchor="middle" pointer-events="none" font-family="sans-serif" dy="1.5625" font-size="25" fill="#FFFFFF"/><text text-anchor="middle" pointer-events="none" y="0" font-size="10px" fill="#FFFFFF" font-family="sans-serif"> Hugo</text><text text-anchor="middle" pointer-events="none" y="10" font-size="10px" fill="#FFFFFF" font-family="sans-serif"> Weaving</text></g><g class="node" transform="translate(106.92992873532503,90.88752646489826)"><circle class="outline" cx="0" cy="0" r="25" fill="#57C7E3" stroke="#23b3d7" stroke-width="2px"/><text text-anchor="middle" pointer-events="none" font-family="sans-serif" dy="1.5625" font-size="25" fill="#FFFFFF"/><text text-anchor="middle" pointer-events="none" font-family="sans-serif" dy="1.5625" font-size="25" fill="#FFFFFF"/><text text-anchor="middle" pointer-events="none" y="0" font-size="10px" fill="#FFFFFF" font-family="sans-serif"> Captain</text><text text-anchor="middle" pointer-events="none" y="10" font-size="10px" fill="#FFFFFF" font-family="sans-serif"> America</text></g><g class="node" transform="translate(219.12744962614437,112.58068578050135)"><circle class="outline" cx="0" cy="0" r="25" fill="#F79767" stroke="#f36924" stroke-width="2px"/><text text-anchor="middle" pointer-events="none" font-family="sans-serif" dy="1.5625" font-size="25" fill="#FFFFFF"/><text text-anchor="middle" pointer-events="none" font-family="sans-serif" dy="1.5625" font-size="25" fill="#FFFFFF"/><text text-anchor="middle" pointer-events="none" font-family="sans-serif" dy="1.5625" font-size="25" fill="#FFFFFF"/><text text-anchor="middle" pointer-events="none" y="-5" font-size="10px" fill="#FFFFFF" font-family="sans-serif"> Samuel</text><text text-anchor="middle" pointer-events="none" y="5" font-size="10px" fill="#FFFFFF" font-family="sans-serif"> L.</text><text text-anchor="middle" pointer-events="none" y="15" font-size="10px" fill="#FFFFFF" font-family="sans-serif"> Jackson</text></g><g class="node" transform="translate(177.09990226331718,-0.5940050204388398)"><circle class="outline" cx="0" cy="0" r="25" fill="#F79767" stroke="#f36924" stroke-width="2px"/><text text-anchor="middle" pointer-events="none" font-family="sans-serif" dy="1.5625" font-size="25" fill="#FFFFFF"/><text text-anchor="middle" pointer-events="none" font-family="sans-serif" dy="1.5625" font-size="25" fill="#FFFFFF"/><text text-anchor="middle" pointer-events="none" y="0" font-size="10px" fill="#FFFFFF" font-family="sans-serif"> Chris</text><text text-anchor="middle" pointer-events="none" y="10" font-size="10px" fill="#FFFFFF" font-family="sans-serif"> Evans</text></g><g class="node" transform="translate(56.86896233598624,-11.776778994873105)"><circle class="outline" cx="0" cy="0" r="25" fill="#F79767" stroke="#f36924" stroke-width="2px"/><text text-anchor="middle" pointer-events="none" font-family="sans-serif" dy="1.5625" font-size="25" fill="#FFFFFF"/><text text-anchor="middle" pointer-events="none" font-family="sans-serif" dy="1.5625" font-size="25" fill="#FFFFFF"/><text text-anchor="middle" pointer-events="none" y="0" font-size="10px" fill="#FFFFFF" font-family="sans-serif"> Stephen</text><text text-anchor="middle" pointer-events="none" y="10" font-size="10px" fill="#FFFFFF" font-family="sans-serif"> McFeely</text></g><g class="node" transform="translate(-7.69381502363156,88.96749913287054)"><circle class="outline" cx="0" cy="0" r="25" fill="#F79767" stroke="#f36924" stroke-width="2px"/><text text-anchor="middle" pointer-events="none" font-family="sans-serif" dy="1.5625" font-size="25" fill="#FFFFFF"/><text text-anchor="middle" pointer-events="none" y="5" font-size="10px" fill="#FFFFFF" font-family="sans-serif"> Christofer</text></g><g class="node" transform="translate(35.98904906068746,183.5269325731564)"><circle class="outline" cx="0" cy="0" r="25" fill="#F79767" stroke="#f36924" stroke-width="2px"/><text text-anchor="middle" pointer-events="none" font-family="sans-serif" dy="1.5625" font-size="25" fill="#FFFFFF"/><text text-anchor="middle" pointer-events="none" font-family="sans-serif" dy="1.5625" font-size="25" fill="#FFFFFF"/><text text-anchor="middle" pointer-events="none" y="0" font-size="10px" fill="#FFFFFF" font-family="sans-serif"> Joe</text><text text-anchor="middle" pointer-events="none" y="10" font-size="10px" fill="#FFFFFF" font-family="sans-serif"> Johnston</text></g></g></svg>