<svg xmlns="http://www.w3.org/2000/svg" width="238.59396362304688" height="228.70237731933594" viewBox="-25.654085159301758 -15.24229907989502 238.59396362304688 228.70237731933594"><title>Neo4j Graph Visualization</title><desc>Created using Neo4j (http://www.neo4j.com/)</desc><g class="layer relationships"><g class="relationship" transform="translate(167.50394563651642 184.46007864338) rotate(278.9418816014646)"><path class="outline" fill="#A5ABB6" stroke="none" d="M 21.40063509461097,12.933012701892217 L 21.90063509461097,12.06698729810778 A 58.16869670409409 58.16869670409409 0 0 0 39.65328513585062,18.745689688176114 L 39.45847763709486,19.726531183234577 A 59.16869670409409 59.16869670409409 0 0 1 21.40063509461097,12.933012701892217 Z M 58.85897082321992,20.333851625003163 L 58.72589391236721,19.342745911268302 A 58.16869670409409 58.16869670409409 0 0 0 76.8615200202606,13.787503812446214 L 75.5269601260324,11.100693456519018 L 83.35317083312876,11.121332451901626 L 78.64093321256485,17.369917620349142 L 77.30637331833665,14.683107264421945 A 59.16869670409409 59.16869670409409 0 0 1 58.85897082321992,20.333851625003163"/><text text-anchor="middle" pointer-events="none" font-size="8px" fill="#000000" x="49.149295411662415" y="23.331389447827462" font-family="sans-serif">trek</text></g><g class="relationship" transform="translate(183.9398861157178 80.0019708223074) rotate(218.979191780161)"><path class="outline" fill="#A5ABB6" stroke="none" d="M 25 0.5 L 39.48854485763019 0.5 L 39.48854485763019 -0.5 L 25 -0.5 Z M 58.82187787307208 0.5 L 73.31042273070227 0.5 L 73.31042273070227 3.5 L 80.31042273070227 0 L 73.31042273070227 -3.5 L 73.31042273070227 -0.5 L 58.82187787307208 -0.5 Z"/><text text-anchor="middle" pointer-events="none" font-size="8px" fill="#000000" x="49.155211365351136" y="3" transform="rotate(180 49.155211365351136 0)" font-family="sans-serif">trek</text></g><g class="relationship" transform="translate(102.07425293259786 13.757701339988676) rotate(519.0333197366015)"><path class="outline" fill="#A5ABB6" stroke="none" d="M 25 0.5 L 39.69772360546434 0.5 L 39.69772360546434 -0.5 L 25 -0.5 Z M 59.031056620906234 0.5 L 73.72878022637057 0.5 L 73.72878022637057 3.5 L 80.72878022637057 0 L 73.72878022637057 -3.5 L 73.72878022637057 -0.5 L 59.031056620906234 -0.5 Z"/><text text-anchor="middle" pointer-events="none" font-size="8px" fill="#000000" x="49.36439011318529" y="3" transform="rotate(180 49.36439011318529 0)" font-family="sans-serif">trek</text></g><g class="relationship" transform="translate(167.50394563651642 184.46007864338) rotate(278.9418816014646)"><path class="outline" fill="#A5ABB6" stroke="none" d="M 25 0.5 L 38.36329536008428 0.5 L 38.36329536008428 -0.5 L 25 -0.5 Z M 60.379961772437795 0.5 L 73.74325713252207 0.5 L 73.74325713252207 3.5 L 80.74325713252207 0 L 73.74325713252207 -3.5 L 73.74325713252207 -0.5 L 60.379961772437795 -0.5 Z"/><text text-anchor="middle" pointer-events="none" font-size="8px" fill="#000000" x="49.37162856626104" y="3" font-family="sans-serif">road</text></g><g class="relationship" transform="translate(167.50394563651642 184.46007864338) rotate(278.9418816014646)"><path class="outline" fill="#A5ABB6" stroke="none" d="M 21.40063509461097,-12.933012701892217 L 21.90063509461097,-12.06698729810778 A 58.16869670409409 58.16869670409409 0 0 1 22.68362374286233,-12.511004187883195 L 22.197084395973306,-13.384662853455055 A 59.16869670409409 59.16869670409409 0 0 0 21.40063509461097,-12.933012701892217 Z M 76.48323389873157,-15.084057192641751 L 76.05229233887954,-14.181677354662028 A 58.16869670409409 58.16869670409409 0 0 1 76.8615200202606,-13.787503812446214 L 75.5269601260324,-11.100693456519018 L 83.35317083312876,-11.121332451901626 L 78.64093321256485,-17.369917620349142 L 77.30637331833665,-14.683107264421945 A 59.16869670409409 59.16869670409409 0 0 0 76.48323389873157,-15.084057192641751"/><text text-anchor="middle" pointer-events="none" font-size="8px" fill="#000000" x="49.1492954116624" y="-17.331389447827462" font-family="sans-serif">PublicTrans…</text></g></g><g class="layer nodes"><g class="node" transform="translate(167.50394563651642,184.46007864338)"><circle class="outline" cx="0" cy="0" r="25" fill="#F16667" stroke="#eb2728" stroke-width="2px"/><text text-anchor="middle" pointer-events="none" font-family="sans-serif" dy="1.5625" font-size="25" fill="#FFFFFF"/><text text-anchor="middle" pointer-events="none" y="5" font-size="10px" fill="#FFFFFF" font-family="sans-serif"> Darjeeling</text></g><g class="node" transform="translate(183.9398861157178,80.0019708223074)"><circle class="outline" cx="0" cy="0" r="25" fill="#F16667" stroke="#eb2728" stroke-width="2px"/><text text-anchor="middle" pointer-events="none" font-family="sans-serif" dy="1.5625" font-size="25" fill="#FFFFFF"/><text text-anchor="middle" pointer-events="none" y="5" font-size="10px" fill="#FFFFFF" font-family="sans-serif"> Rimbik</text></g><g class="node" transform="translate(102.07425293259786,13.757701339988676)"><circle class="outline" cx="0" cy="0" r="25" fill="#D9C8AE" stroke="#c0a378" stroke-width="2px"/><text text-anchor="middle" pointer-events="none" font-family="sans-serif" dy="1.5625" font-size="25" fill="#604A0E"/><text text-anchor="middle" pointer-events="none" y="5" font-size="10px" fill="#604A0E" font-family="sans-serif"> BhikeBh…</text></g><g class="node" transform="translate(3.345915483561554,51.590099528649475)"><circle class="outline" cx="0" cy="0" r="25" fill="#8DCC93" stroke="#5db665" stroke-width="2px"/><text text-anchor="middle" pointer-events="none" font-family="sans-serif" dy="1.5625" font-size="25" fill="#604A0E"/><text text-anchor="middle" pointer-events="none" y="5" font-size="10px" fill="#604A0E" font-family="sans-serif"> Sandak…</text></g></g></svg>