<svg xmlns="http://www.w3.org/2000/svg" width="289.33404541015625" height="268.1648864746094" viewBox="-48.9339599609375 -30.669593811035156 289.33404541015625 268.1648864746094"><title>Neo4j Graph Visualization</title><desc>Created using Neo4j (http://www.neo4j.com/)</desc><g class="layer relationships"><g class="relationship" transform="translate(211.40007406312165 115.85574286496386) rotate(481.2823256865712)"><path class="outline" fill="#A5ABB6" stroke="none" d="M 25 0.5 L 33.482662945134976 0.5 L 33.482662945134976 -0.5 L 25 -0.5 Z M 67.91599538837228 0.5 L 76.39865833350726 0.5 L 76.39865833350726 3.5 L 83.39865833350726 0 L 76.39865833350726 -3.5 L 76.39865833350726 -0.5 L 67.91599538837228 -0.5 Z"/><text text-anchor="middle" pointer-events="none" font-size="8px" fill="#000000" x="50.69932916675363" y="3" transform="rotate(180 50.69932916675363 0)" font-family="sans-serif">ORIGIN</text></g><g class="relationship" transform="translate(211.40007406312165 115.85574286496386) rotate(239.48465564230236)"><path class="outline" fill="#A5ABB6" stroke="none" d="M 25 0.5 L 26.04242268416926 0.5 L 26.04242268416926 -0.5 L 25 -0.5 Z M 74.70909062240167 0.5 L 75.75151330657094 0.5 L 75.75151330657094 3.5 L 82.75151330657094 0 L 75.75151330657094 -3.5 L 75.75151330657094 -0.5 L 74.70909062240167 -0.5 Z"/><text text-anchor="middle" pointer-events="none" font-size="8px" fill="#000000" x="50.37575665328547" y="3" transform="rotate(180 50.37575665328547 0)" font-family="sans-serif">DESTINA…</text></g><g class="relationship" transform="translate(51.81589846811998 -1.6695946080450497) rotate(373.2521899542736)"><path class="outline" fill="#A5ABB6" stroke="none" d="M 25 0.5 L 33.15351334822611 0.5 L 33.15351334822611 -0.5 L 25 -0.5 Z M 67.58684579146342 0.5 L 75.74035913968953 0.5 L 75.74035913968953 3.5 L 82.74035913968953 0 L 75.74035913968953 -3.5 L 75.74035913968953 -0.5 L 67.58684579146342 -0.5 Z"/><text text-anchor="middle" pointer-events="none" font-size="8px" fill="#000000" x="50.370179569844765" y="3" font-family="sans-serif">ORIGIN</text></g><g class="relationship" transform="translate(51.81589846811998 -1.6695946080450497) rotate(491.4528742586859)"><path class="outline" fill="#A5ABB6" stroke="none" d="M 25 0.5 L 26.358091938049412 0.5 L 26.358091938049412 -0.5 L 25 -0.5 Z M 75.02475987628183 0.5 L 76.38285181433125 0.5 L 76.38285181433125 3.5 L 83.38285181433125 0 L 76.38285181433125 -3.5 L 76.38285181433125 -0.5 L 75.02475987628183 -0.5 Z"/><text text-anchor="middle" pointer-events="none" font-size="8px" fill="#000000" x="50.69142590716562" y="3" transform="rotate(180 50.69142590716562 0)" font-family="sans-serif">DESTINA…</text></g></g><g class="layer nodes"><g class="node" transform="translate(155.1134736625175,208.49530106688508)"><circle class="outline" cx="0" cy="0" r="25" fill="#ECB5C9" stroke="#da7298" stroke-width="2px"/><text text-anchor="middle" pointer-events="none" font-family="sans-serif" dy="1.5625" font-size="25" fill="#604A0E"/><text text-anchor="middle" pointer-events="none" y="5" font-size="10px" fill="#604A0E" font-family="sans-serif"> CVG</text></g><g class="node" transform="translate(211.40007406312165,115.85574286496386)"><circle class="outline" cx="0" cy="0" r="25" fill="#4C8EDA" stroke="#2870c2" stroke-width="2px"/><text text-anchor="middle" pointer-events="none" font-family="sans-serif" dy="1.5625" font-size="25" fill="#FFFFFF"/><text text-anchor="middle" pointer-events="none" y="5" font-size="10px" fill="#FFFFFF" font-family="sans-serif"> 11/17/20…</text></g><g class="node" transform="translate(156.68718542019877,23.028546224091112)"><circle class="outline" cx="0" cy="0" r="25" fill="#ECB5C9" stroke="#da7298" stroke-width="2px"/><text text-anchor="middle" pointer-events="none" font-family="sans-serif" dy="1.5625" font-size="25" fill="#604A0E"/><text text-anchor="middle" pointer-events="none" y="5" font-size="10px" fill="#604A0E" font-family="sans-serif"> ORD</text></g><g class="node" transform="translate(51.81589846811998,-1.6695946080450497)"><circle class="outline" cx="0" cy="0" r="25" fill="#4C8EDA" stroke="#2870c2" stroke-width="2px"/><text text-anchor="middle" pointer-events="none" font-family="sans-serif" dy="1.5625" font-size="25" fill="#FFFFFF"/><text text-anchor="middle" pointer-events="none" y="5" font-size="10px" fill="#FFFFFF" font-family="sans-serif"> 11/30/20…</text></g><g class="node" transform="translate(-19.933962215555923,79.56340397799993)"><circle class="outline" cx="0" cy="0" r="25" fill="#ECB5C9" stroke="#da7298" stroke-width="2px"/><text text-anchor="middle" pointer-events="none" font-family="sans-serif" dy="1.5625" font-size="25" fill="#604A0E"/><text text-anchor="middle" pointer-events="none" y="5" font-size="10px" fill="#604A0E" font-family="sans-serif"> MSN</text></g></g></svg>