<svg xmlns="http://www.w3.org/2000/svg" width="384.040771484375" height="421.46649169921875" viewBox="-86.43557739257812 -102.10931396484375 384.040771484375 421.46649169921875"><title>Neo4j Graph Visualization</title><desc>Created using Neo4j (http://www.neo4j.com/)</desc><g class="layer relationships"><g class="relationship" transform="translate(140.8520774069679 290.3571593004061) rotate(323.65311858859764)"><path class="outline" fill="#A5ABB6" stroke="none" d="M 24.018736134675446,-6.953439040707552 L 24.277555179777966,-5.987513214418485 A 110.11886615888639 110.11886615888639 0 0 1 41.45533348753819,-9.156022061439018 L 41.352507497095125,-10.150721420888601 A 111.11886615888639 111.11886615888639 0 0 0 24.018736134675446,-6.953439040707552 Z M 60.746152936514676,-10.453692575503155 L 60.674448299443156,-9.456266665962772 A 110.11886615888639 110.11886615888639 0 0 1 77.94281800601077,-6.825881982783678 L 77.25725692323748,-3.905264581995495 L 84.8718521216454,-5.71300902311071 L 78.85689944970848,-10.720038517167922 L 78.17133836693519,-7.799421116379739 A 111.11886615888639 111.11886615888639 0 0 0 60.746152936514676,-10.453692575503155"/><text text-anchor="middle" pointer-events="none" font-size="8px" fill="#000000" x="51.050517196146885" y="-7.22622664114958" font-family="sans-serif">trek</text></g><g class="relationship" transform="translate(228.8148398539731 225.63120853711476) rotate(290.41518710462566)"><path class="outline" fill="#A5ABB6" stroke="none" d="M 21.40063509461097,-12.933012701892217 L 21.90063509461097,-12.06698729810778 A 66.77210343264984 66.77210343264984 0 0 1 30.85391618378238,-16.382048836456875 L 30.488003334387155,-17.31269795758012 A 67.77210343264984 67.77210343264984 0 0 0 21.40063509461097,-12.933012701892217 Z M 76.37130590603098,-18.649475264150524 L 76.06019531587424,-17.699101547819765 A 66.77210343264984 66.77210343264984 0 0 1 85.24950933186307,-13.912611582560999 L 83.90331139976635,-11.231613423736842 L 91.7295380244689,-11.21831610080601 L 87.04443990799203,-17.48727579432654 L 85.69824197589531,-14.806277635502383 A 67.77210343264984 67.77210343264984 0 0 0 76.37130590603098,-18.649475264150524"/><text text-anchor="middle" pointer-events="none" font-size="8px" fill="#000000" x="53.32759331052255" y="-18.484220551116778" font-family="sans-serif">twowheeler</text></g><g class="relationship" transform="translate(268.60520638658517 118.72488051829045) rotate(193.46903249801016)"><path class="outline" fill="#A5ABB6" stroke="none" d="M 21.40063509461097,12.933012701892217 L 21.90063509461097,12.06698729810778 A 69.9676498931027 69.9676498931027 0 0 0 45.35264286559669,20.484015683493254 L 45.18782645125115,21.470339945367755 A 70.9676498931027 70.9676498931027 0 0 1 21.40063509461097,12.933012701892217 Z M 64.58950647370024,22.02136174036005 L 64.48093522406546,21.02727307039507 A 69.9676498931027 69.9676498931027 0 0 0 88.37285475614334,13.954846584140697 L 87.02272817208245,11.275824709087775 L 94.84892689527697,11.251054867174105 L 90.1730235348912,17.526875750877924 L 88.82289695083031,14.847853875825002 A 70.9676498931027 70.9676498931027 0 0 1 64.58950647370024,22.02136174036005"/><text text-anchor="middle" pointer-events="none" font-size="8px" fill="#000000" x="54.883934287178924" y="24.91247247517032" transform="rotate(180 54.883934287178924 21.91247247517032)" font-family="sans-serif">trek</text></g><g class="relationship" transform="translate(154.65385951648136 91.43271295419929) rotate(532.6924205791013)"><path class="outline" fill="#A5ABB6" stroke="none" d="M 25 0.5 L 56.854556252626566 0.5 L 56.854556252626566 -0.5 L 25 -0.5 Z M 76.18788926806846 0.5 L 108.04244552069503 0.5 L 108.04244552069503 3.5 L 115.04244552069503 0 L 108.04244552069503 -3.5 L 108.04244552069503 -0.5 L 76.18788926806846 -0.5 Z"/><text text-anchor="middle" pointer-events="none" font-size="8px" fill="#000000" x="66.52122276034751" y="3" transform="rotate(180 66.52122276034751 0)" font-family="sans-serif">trek</text></g><g class="relationship" transform="translate(140.8520774069679 290.3571593004061) rotate(323.65311858859764)"><path class="outline" fill="#A5ABB6" stroke="none" d="M 24.018736134675446,6.953439040707552 L 24.277555179777966,5.987513214418485 A 110.11886615888639 110.11886615888639 0 0 0 40.127676112904915,9.010634245586516 L 40.012793538327415,10.004013324316503 A 111.11886615888639 111.11886615888639 0 0 1 24.018736134675446,6.953439040707552 Z M 62.08979581735594,10.348904381121628 L 62.00599923831914,9.35242149951165 A 110.11886615888639 110.11886615888639 0 0 0 77.94281800601077,6.825881982783678 L 77.25725692323748,3.905264581995495 L 84.8718521216454,5.71300902311071 L 78.85689944970848,10.720038517167922 L 78.17133836693519,7.799421116379739 A 111.11886615888639 111.11886615888639 0 0 1 62.08979581735594,10.348904381121628"/><text text-anchor="middle" pointer-events="none" font-size="8px" fill="#000000" x="51.050517196146934" y="13.22622664114958" font-family="sans-serif">road</text></g><g class="relationship" transform="translate(228.8148398539731 225.63120853711476) rotate(290.41518710462566)"><path class="outline" fill="#A5ABB6" stroke="none" d="M 25 0.5 L 43.86892816628082 0.5 L 43.86892816628082 -0.5 L 25 -0.5 Z M 63.20226118172271 0.5 L 82.07118934800353 0.5 L 82.07118934800353 3.5 L 89.07118934800353 0 L 82.07118934800353 -3.5 L 82.07118934800353 -0.5 L 63.20226118172271 -0.5 Z"/><text text-anchor="middle" pointer-events="none" font-size="8px" fill="#000000" x="53.535594674001764" y="3" font-family="sans-serif">trek</text></g><g class="relationship" transform="translate(228.8148398539731 225.63120853711476) rotate(290.41518710462566)"><path class="outline" fill="#A5ABB6" stroke="none" d="M 21.40063509461097,12.933012701892217 L 21.90063509461097,12.06698729810778 A 66.77210343264984 66.77210343264984 0 0 0 42.49493038445162,19.77601979173619 L 42.30335702119241,20.75749808823059 A 67.77210343264984 67.77210343264984 0 0 1 21.40063509461097,12.933012701892217 Z M 64.37543975022244,21.40055248159821 L 64.24133216791435,20.40958570295855 A 66.77210343264984 66.77210343264984 0 0 0 85.24950933186307,13.912611582560999 L 83.90331139976635,11.231613423736842 L 91.7295380244689,11.21831610080601 L 87.04443990799203,17.48727579432654 L 85.69824197589531,14.806277635502383 A 67.77210343264984 67.77210343264984 0 0 1 64.37543975022244,21.40055248159821"/><text text-anchor="middle" pointer-events="none" font-size="8px" fill="#000000" x="53.32759331052254" y="24.484220551116778" font-family="sans-serif">road</text></g><g class="relationship" transform="translate(268.60520638658517 118.72488051829045) rotate(193.46903249801016)"><path class="outline" fill="#A5ABB6" stroke="none" d="M 25 0.5 L 31.845387799869094 0.5 L 31.845387799869094 -0.5 L 25 -0.5 Z M 78.32872138751557 0.5 L 85.17410918738467 0.5 L 85.17410918738467 3.5 L 92.17410918738467 0 L 85.17410918738467 -3.5 L 85.17410918738467 -0.5 L 78.32872138751557 -0.5 Z"/><text text-anchor="middle" pointer-events="none" font-size="8px" fill="#000000" x="55.087054593692336" y="3" transform="rotate(180 55.087054593692336 0)" font-family="sans-serif">twowheeler</text></g><g class="relationship" transform="translate(268.60520638658517 118.72488051829045) rotate(193.46903249801016)"><path class="outline" fill="#A5ABB6" stroke="none" d="M 21.40063509461097,-12.933012701892217 L 21.90063509461097,-12.06698729810778 A 69.9676498931027 69.9676498931027 0 0 1 44.040883464052726,-20.251961385727725 L 43.85731896536323,-21.23496905346022 A 70.9676498931027 70.9676498931027 0 0 0 21.40063509461097,-12.933012701892217 Z M 65.93122794477021,-21.861884090418656 L 65.8037505953408,-20.870042608435554 A 69.9676498931027 69.9676498931027 0 0 1 88.37285475614334,-13.954846584140697 L 87.02272817208245,-11.275824709087775 L 94.84892689527697,-11.251054867174105 L 90.1730235348912,-17.526875750877924 L 88.82289695083031,-14.847853875825002 A 70.9676498931027 70.9676498931027 0 0 0 65.93122794477021,-21.861884090418656"/><text text-anchor="middle" pointer-events="none" font-size="8px" fill="#000000" x="54.8839342871789" y="-18.91247247517032" transform="rotate(180 54.8839342871789 -21.91247247517032)" font-family="sans-serif">road</text></g><g class="relationship" transform="translate(140.8520774069679 290.3571593004061) rotate(260.4116096230159)"><path class="outline" fill="#A5ABB6" stroke="none" d="M 21.40063509461097,12.933012701892217 L 21.90063509461097,12.06698729810778 A 64.09903315116765 64.09903315116765 0 0 0 22.793528870715697,12.573012332290794 L 22.30745878092197,13.44693216145587 A 65.09903315116765 65.09903315116765 0 0 1 21.40063509461097,12.933012701892217 Z M 82.15171250540536,15.22889581177489 L 81.71850237201177,14.327602862548552 A 64.09903315116765 64.09903315116765 0 0 0 82.63992298298432,13.875602101153875 L 81.29716772277021,11.192878054374678 L 89.12340496883813,11.189627168450833 L 84.43026332993645,17.452567496859473 L 83.08750806972235,14.769843450080275 A 65.09903315116765 65.09903315116765 0 0 1 82.15171250540536,15.22889581177489"/><text text-anchor="middle" pointer-events="none" font-size="8px" fill="#000000" x="52.027458628200286" y="24.12601000971611" transform="rotate(180 52.027458628200286 21.12601000971611)" font-family="sans-serif">PublicTransport</text></g><g class="relationship" transform="translate(122.28306383166756 180.4351097110573) rotate(289.98668149476293)"><path class="outline" fill="#A5ABB6" stroke="none" d="M 25 0.5 L 34.18651459379833 0.5 L 34.18651459379833 -0.5 L 25 -0.5 Z M 53.51984760924022 0.5 L 62.70636220303855 0.5 L 62.70636220303855 3.5 L 69.70636220303855 0 L 62.70636220303855 -3.5 L 62.70636220303855 -0.5 L 53.51984760924022 -0.5 Z"/><text text-anchor="middle" pointer-events="none" font-size="8px" fill="#000000" x="43.853181101519276" y="3" font-family="sans-serif">trek</text></g><g class="relationship" transform="translate(140.8520774069679 290.3571593004061) rotate(260.4116096230159)"><path class="outline" fill="#A5ABB6" stroke="none" d="M 25 0.5 L 41.23138613982227 0.5 L 41.23138613982227 -0.5 L 25 -0.5 Z M 63.248052552175785 0.5 L 79.47943869199806 0.5 L 79.47943869199806 3.5 L 86.47943869199806 0 L 79.47943869199806 -3.5 L 79.47943869199806 -0.5 L 63.248052552175785 -0.5 Z"/><text text-anchor="middle" pointer-events="none" font-size="8px" fill="#000000" x="52.23971934599903" y="3" transform="rotate(180 52.23971934599903 0)" font-family="sans-serif">road</text></g><g class="relationship" transform="translate(140.8520774069679 290.3571593004061) rotate(260.4116096230159)"><path class="outline" fill="#A5ABB6" stroke="none" d="M 21.40063509461097,-12.933012701892217 L 21.90063509461097,-12.06698729810778 A 64.09903315116765 64.09903315116765 0 0 1 42.51180589378861,-19.625797569159865 L 42.33335787025243,-20.60974690875821 A 65.09903315116765 65.09903315116765 0 0 0 21.40063509461097,-12.933012701892217 Z M 61.73510201803171,-21.187466583955512 L 61.615515751216364,-20.19464277038678 A 64.09903315116765 64.09903315116765 0 0 1 82.63992298298432,-13.875602101153875 L 81.29716772277021,-11.192878054374678 L 89.12340496883813,-11.189627168450833 L 84.43026332993645,-17.452567496859473 L 83.08750806972235,-14.769843450080275 A 65.09903315116765 65.09903315116765 0 0 0 61.73510201803171,-21.187466583955512"/><text text-anchor="middle" pointer-events="none" font-size="8px" fill="#000000" x="52.027458628200264" y="-18.12601000971611" transform="rotate(180 52.027458628200264 -21.12601000971611)" font-family="sans-serif">trek</text></g><g class="relationship" transform="translate(122.28306383166756 180.4351097110573) rotate(261.3374136083673)"><path class="outline" fill="#A5ABB6" stroke="none" d="M 24.018736134675446,-6.953439040707552 L 24.277555179777966,-5.987513214418485 A 178.01369449819512 178.01369449819512 0 0 1 58.57341567454376,-11.663153740310975 L 58.50725518074788,-12.660962734588281 A 179.01369449819512 179.01369449819512 0 0 0 24.018736134675446,-6.953439040707552 Z M 77.88385667227509,-12.894617420491727 L 77.84177627675888,-11.895503192631253 A 178.01369449819512 178.01369449819512 0 0 1 112.26452496724274,-7.048512884472855 L 111.55816972619645,-4.132854764348607 L 119.18545312104035,-5.886293675385593 L 113.20633195530444,-10.936057044638517 L 112.49997671425815,-8.02039892451427 A 179.01369449819512 179.01369449819512 0 0 0 77.88385667227509,-12.894617420491727"/><text text-anchor="middle" pointer-events="none" font-size="8px" fill="#000000" x="68.198420865628" y="-9.540205355694894" transform="rotate(180 68.198420865628 -12.540205355694894)" font-family="sans-serif">trek</text></g><g class="relationship" transform="translate(100.67238682061154 38.589290862646706) rotate(196.89306854832364)"><path class="outline" fill="#A5ABB6" stroke="none" d="M 24.018736134675446,-6.953439040707552 L 24.277555179777966,-5.987513214418485 A 96.76249890506172 96.76249890506172 0 0 1 38.12586383439257,-8.63474934829884 L 38.010161273582185,-9.628033254048802 A 97.76249890506172 97.76249890506172 0 0 0 24.018736134675446,-6.953439040707552 Z M 57.40824032656023,-9.949583642606825 L 57.32552243709329,-8.953010639379187 A 96.76249890506172 96.76249890506172 0 0 1 71.25396198523512,-6.7662130959943845 L 70.57397450603719,-3.8442930032926634 L 78.18510678140547,-5.666562326649482 L 72.16061195749904,-10.662106552930013 L 71.48062447830111,-7.740186460228291 A 97.76249890506172 97.76249890506172 0 0 0 57.40824032656023,-9.949583642606825"/><text text-anchor="middle" pointer-events="none" font-size="8px" fill="#000000" x="47.70949176636149" y="-6.771255407493456" transform="rotate(180 47.70949176636149 -9.771255407493456)" font-family="sans-serif">trek</text></g><g class="relationship" transform="translate(2.562435714325069 8.79417277287093) rotate(442.521427516419)"><path class="outline" fill="#A5ABB6" stroke="none" d="M 24.018736134675446,6.953439040707552 L 24.277555179777966,5.987513214418485 A 94.31255226368764 94.31255226368764 0 0 0 37.517151837784596,8.537300151055689 L 37.398712798738856,9.530261476601623 A 95.31255226368764 95.31255226368764 0 0 1 24.018736134675446,6.953439040707552 Z M 56.797621866023185,9.855459399013682 L 56.71253147891721,8.859086162710057 A 94.31255226368764 94.31255226368764 0 0 0 70.03015280397894,6.7544970505063695 L 69.35125972790802,3.8323224850050286 L 76.96170896949388,5.6574423005910885 L 70.9353435720735,10.650729804508156 L 70.25645049600259,7.728555239006816 A 95.31255226368764 95.31255226368764 0 0 1 56.797621866023185,9.855459399013682"/><text text-anchor="middle" pointer-events="none" font-size="8px" fill="#000000" x="47.09825189449383" y="12.687816085971832" font-family="sans-serif">trek</text></g><g class="relationship" transform="translate(122.28306383166756 180.4351097110573) rotate(261.3374136083673)"><path class="outline" fill="#A5ABB6" stroke="none" d="M 24.018736134675446,6.953439040707552 L 24.277555179777966,5.987513214418485 A 178.01369449819512 178.01369449819512 0 0 0 45.113148681052074,10.255071747627397 L 44.97137452713058,11.24497077746824 A 179.01369449819512 179.01369449819512 0 0 1 24.018736134675446,6.953439040707552 Z M 91.4499461940429,11.805437279750436 L 91.33208338668499,10.812407391659605 A 178.01369449819512 178.01369449819512 0 0 0 112.26452496724274,7.048512884472855 L 111.55816972619645,4.132854764348607 L 119.18545312104035,5.886293675385593 L 113.20633195530444,10.936057044638517 L 112.49997671425815,8.02039892451427 A 179.01369449819512 179.01369449819512 0 0 1 91.4499461940429,11.805437279750436"/><text text-anchor="middle" pointer-events="none" font-size="8px" fill="#000000" x="68.19842086562807" y="15.540205355694894" transform="rotate(180 68.19842086562807 12.540205355694894)" font-family="sans-serif">twowheeler</text></g><g class="relationship" transform="translate(100.67238682061154 38.589290862646706) rotate(196.89306854832364)"><path class="outline" fill="#A5ABB6" stroke="none" d="M 24.018736134675446,6.953439040707552 L 24.277555179777966,5.987513214418485 A 96.76249890506172 96.76249890506172 0 0 0 24.863730147681554,6.142611517848621 L 24.610968975975617,7.110140220305482 A 97.76249890506172 97.76249890506172 0 0 1 24.018736134675446,6.953439040707552 Z M 70.88352335479483,7.877172759942255 L 70.66296853215661,6.901798180505708 A 96.76249890506172 96.76249890506172 0 0 0 71.25396198523512,6.7662130959943845 L 70.57397450603719,3.8442930032926634 L 78.18510678140547,5.666562326649482 L 72.16061195749904,10.662106552930013 L 71.48062447830111,7.740186460228291 A 97.76249890506172 97.76249890506172 0 0 1 70.88352335479483,7.877172759942255"/><text text-anchor="middle" pointer-events="none" font-size="8px" fill="#000000" x="47.709491766361516" y="12.771255407493456" transform="rotate(180 47.709491766361516 9.771255407493456)" font-family="sans-serif">twowheeler</text></g><g class="relationship" transform="translate(2.562435714325069 8.79417277287093) rotate(442.521427516419)"><path class="outline" fill="#A5ABB6" stroke="none" d="M 24.018736134675446,-6.953439040707552 L 24.277555179777966,-5.987513214418485 A 94.31255226368764 94.31255226368764 0 0 1 24.70148656431239,-6.100049389354552 L 24.44716248169746,-7.067168441489329 A 95.31255226368764 95.31255226368764 0 0 0 24.018736134675446,-6.953439040707552 Z M 69.82445289120948,-7.827860731693903 L 69.60268763058687,-6.852760650071005 A 94.31255226368764 94.31255226368764 0 0 1 70.03015280397894,-6.7544970505063695 L 69.35125972790802,-3.8323224850050286 L 76.96170896949388,-5.6574423005910885 L 70.9353435720735,-10.650729804508156 L 70.25645049600259,-7.728555239006816 A 95.31255226368764 95.31255226368764 0 0 0 69.82445289120948,-7.827860731693903"/><text text-anchor="middle" pointer-events="none" font-size="8px" fill="#000000" x="47.09825189449381" y="-6.687816085971832" font-family="sans-serif">twowhee…</text></g><g class="relationship" transform="translate(122.28306383166756 180.4351097110573) rotate(382.9890813938124)"><path class="outline" fill="#A5ABB6" stroke="none" d="M 25 0.5 L 44.69460432943192 0.5 L 44.69460432943192 -0.5 L 25 -0.5 Z M 64.0279373448738 0.5 L 83.72254167430573 0.5 L 83.72254167430573 3.5 L 90.72254167430573 0 L 83.72254167430573 -3.5 L 83.72254167430573 -0.5 L 64.0279373448738 -0.5 Z"/><text text-anchor="middle" pointer-events="none" font-size="8px" fill="#000000" x="54.361270837152865" y="3" font-family="sans-serif">trek</text></g><g class="relationship" transform="translate(100.67238682061154 38.589290862646706) rotate(244.10761525046343)"><path class="outline" fill="#A5ABB6" stroke="none" d="M 24.018736134675446,-6.953439040707552 L 24.277555179777966,-5.987513214418485 A 139.8543103835844 139.8543103835844 0 0 1 35.51489097474514,-8.507653629023622 L 35.336422229637996,-9.491599210354167 A 140.8543103835844 140.8543103835844 0 0 0 24.018736134675446,-6.953439040707552 Z M 81.76800209156714,-10.134121707667845 L 81.61682824543598,-9.14561451586502 A 139.8543103835844 139.8543103835844 0 0 1 92.91959545500603,-6.937385160828555 L 92.22361945428166,-4.019232079440309 L 99.84461531169934,-5.799800006036403 L 93.84756345597187,-10.828255936012882 L 93.1515874552475,-7.910102854624636 A 140.8543103835844 140.8543103835844 0 0 0 81.76800209156714,-10.134121707667845"/><text text-anchor="middle" pointer-events="none" font-size="8px" fill="#000000" x="58.53247029537442" y="-8.239496873761766" transform="rotate(180 58.53247029537442 -11.239496873761766)" font-family="sans-serif">twowheeler</text></g><g class="relationship" transform="translate(46.45280510350209 -73.1093111082399) rotate(478.1859292706613)"><path class="outline" fill="#A5ABB6" stroke="none" d="M 21.40063509461097,12.933012701892217 L 21.90063509461097,12.06698729810778 A 44.827071097010865 44.827071097010865 0 0 0 23.253647558654475,12.817320487896588 L 22.78383049122028,13.70008428594651 A 45.827071097010865 45.827071097010865 0 0 1 21.40063509461097,12.933012701892217 Z M 62.93344548135859,15.119738372666475 L 62.527151245385554,14.205996071021708 A 44.827071097010865 44.827071097010865 0 0 0 63.929780631471985,13.553099885673271 L 62.61702857060868,10.85556730446148 L 70.44281533111005,10.939600507194196 L 65.68011671262306,17.14980999395566 L 64.36736465175976,14.45227741274387 A 45.827071097010865 45.827071097010865 0 0 1 62.93344548135859,15.119738372666475"/><text text-anchor="middle" pointer-events="none" font-size="8px" fill="#000000" x="42.71244736643674" y="21.544367150031405" transform="rotate(180 42.71244736643674 18.544367150031405)" font-family="sans-serif">twowhe…</text></g><g class="relationship" transform="translate(100.67238682061154 38.589290862646706) rotate(244.10761525046343)"><path class="outline" fill="#A5ABB6" stroke="none" d="M 24.018736134675446,6.953439040707552 L 24.277555179777966,5.987513214418485 A 139.8543103835844 139.8543103835844 0 0 0 48.92028137191916,10.274832615736699 L 48.83766516335813,11.271414053494311 A 140.8543103835844 140.8543103835844 0 0 1 24.018736134675446,6.953439040707552 Z M 68.22268001662482,11.539664847264845 L 68.16767164841234,10.541178953810885 A 139.8543103835844 139.8543103835844 0 0 0 92.91959545500603,6.937385160828555 L 92.22361945428166,4.019232079440309 L 99.84461531169934,5.799800006036403 L 93.84756345597187,10.828255936012882 L 93.1515874552475,7.910102854624636 A 140.8543103835844 140.8543103835844 0 0 1 68.22268001662482,11.539664847264845"/><text text-anchor="middle" pointer-events="none" font-size="8px" fill="#000000" x="58.53247029537445" y="14.239496873761766" transform="rotate(180 58.53247029537445 11.239496873761766)" font-family="sans-serif">trek</text></g><g class="relationship" transform="translate(46.45280510350209 -73.1093111082399) rotate(478.1859292706613)"><path class="outline" fill="#A5ABB6" stroke="none" d="M 25 0.5 L 31.952793547760734 0.5 L 31.952793547760734 -0.5 L 25 -0.5 Z M 53.96945996011425 0.5 L 60.922253507874984 0.5 L 60.922253507874984 3.5 L 67.92225350787498 0 L 60.922253507874984 -3.5 L 60.922253507874984 -0.5 L 53.96945996011425 -0.5 Z"/><text text-anchor="middle" pointer-events="none" font-size="8px" fill="#000000" x="42.96112675393749" y="3" transform="rotate(180 42.96112675393749 0)" font-family="sans-serif">road</text></g><g class="relationship" transform="translate(46.45280510350209 -73.1093111082399) rotate(478.1859292706613)"><path class="outline" fill="#A5ABB6" stroke="none" d="M 21.40063509461097,-12.933012701892217 L 21.90063509461097,-12.06698729810778 A 44.827071097010865 44.827071097010865 0 0 1 33.284197216516176,-16.694494342231955 L 33.03814113574458,-17.6637499355175 A 45.827071097010865 45.827071097010865 0 0 0 21.40063509461097,-12.933012701892217 Z M 52.42479079182367,-18.349244339855403 L 52.24780762544286,-17.365030461261007 A 44.827071097010865 44.827071097010865 0 0 1 63.929780631471985,-13.553099885673271 L 62.61702857060868,-10.85556730446148 L 70.44281533111005,-10.939600507194196 L 65.68011671262306,-17.14980999395566 L 64.36736465175976,-14.45227741274387 A 45.827071097010865 45.827071097010865 0 0 0 52.42479079182367,-18.349244339855403"/><text text-anchor="middle" pointer-events="none" font-size="8px" fill="#000000" x="42.71244736643675" y="-15.544367150031405" transform="rotate(180 42.71244736643675 -18.544367150031405)" font-family="sans-serif">trek</text></g><g class="relationship" transform="translate(46.45280510350209 -73.1093111082399) rotate(502.44131823781316)"><path class="outline" fill="#A5ABB6" stroke="none" d="M 25 0.5 L 52.35908720021931 0.5 L 52.35908720021931 -0.5 L 25 -0.5 Z M 71.6924202156612 0.5 L 99.05150741588051 0.5 L 99.05150741588051 3.5 L 106.05150741588051 0 L 99.05150741588051 -3.5 L 99.05150741588051 -0.5 L 71.6924202156612 -0.5 Z"/><text text-anchor="middle" pointer-events="none" font-size="8px" fill="#000000" x="62.025753707940254" y="3" transform="rotate(180 62.025753707940254 0)" font-family="sans-serif">trek</text></g><g class="relationship" transform="translate(-57.435582582530024 6.77623514370283) rotate(414.4652388924498)"><path class="outline" fill="#A5ABB6" stroke="none" d="M 25 0.5 L 49.79348545750635 0.5 L 49.79348545750635 -0.5 L 25 -0.5 Z M 69.12681847294824 0.5 L 93.9203039304546 0.5 L 93.9203039304546 3.5 L 100.9203039304546 0 L 93.9203039304546 -3.5 L 93.9203039304546 -0.5 L 69.12681847294824 -0.5 Z"/><text text-anchor="middle" pointer-events="none" font-size="8px" fill="#000000" x="59.4601519652273" y="3" font-family="sans-serif">trek</text></g></g><g class="layer nodes"><g class="node" transform="translate(140.8520774069679,290.3571593004061)"><circle class="outline" cx="0" cy="0" r="25" fill="#F16667" stroke="#eb2728" stroke-width="2px"/><text text-anchor="middle" pointer-events="none" font-family="sans-serif" dy="1.5625" font-size="25" fill="#FFFFFF"/><text text-anchor="middle" pointer-events="none" y="5" font-size="10px" fill="#FFFFFF" font-family="sans-serif"> Darjeeling</text></g><g class="node" transform="translate(228.8148398539731,225.63120853711476)"><circle class="outline" cx="0" cy="0" r="25" fill="#D9C8AE" stroke="#c0a378" stroke-width="2px"/><text text-anchor="middle" pointer-events="none" font-family="sans-serif" dy="1.5625" font-size="25" fill="#604A0E"/><text text-anchor="middle" pointer-events="none" y="5" font-size="10px" fill="#604A0E" font-family="sans-serif"> Tumbling</text></g><g class="node" transform="translate(268.60520638658517,118.72488051829045)"><circle class="outline" cx="0" cy="0" r="25" fill="#D9C8AE" stroke="#c0a378" stroke-width="2px"/><text text-anchor="middle" pointer-events="none" font-family="sans-serif" dy="1.5625" font-size="25" fill="#604A0E"/><text text-anchor="middle" pointer-events="none" y="5" font-size="10px" fill="#604A0E" font-family="sans-serif"> Gairibus</text></g><g class="node" transform="translate(154.65385951648136,91.43271295419929)"><circle class="outline" cx="0" cy="0" r="25" fill="#D9C8AE" stroke="#c0a378" stroke-width="2px"/><text text-anchor="middle" pointer-events="none" font-family="sans-serif" dy="1.5625" font-size="25" fill="#604A0E"/><text text-anchor="middle" pointer-events="none" y="5" font-size="10px" fill="#604A0E" font-family="sans-serif"> BhikeBh…</text></g><g class="node" transform="translate(15.748891245614974,109.2455267994746)"><circle class="outline" cx="0" cy="0" r="25" fill="#8DCC93" stroke="#5db665" stroke-width="2px"/><text text-anchor="middle" pointer-events="none" font-family="sans-serif" dy="1.5625" font-size="25" fill="#604A0E"/><text text-anchor="middle" pointer-events="none" y="5" font-size="10px" fill="#604A0E" font-family="sans-serif"> Sandak…</text></g><g class="node" transform="translate(122.28306383166756,180.4351097110573)"><circle class="outline" cx="0" cy="0" r="25" fill="#F16667" stroke="#eb2728" stroke-width="2px"/><text text-anchor="middle" pointer-events="none" font-family="sans-serif" dy="1.5625" font-size="25" fill="#FFFFFF"/><text text-anchor="middle" pointer-events="none" y="5" font-size="10px" fill="#FFFFFF" font-family="sans-serif"> Rimbik</text></g><g class="node" transform="translate(100.67238682061154,38.589290862646706)"><circle class="outline" cx="0" cy="0" r="25" fill="#D9C8AE" stroke="#c0a378" stroke-width="2px"/><text text-anchor="middle" pointer-events="none" font-family="sans-serif" dy="1.5625" font-size="25" fill="#604A0E"/><text text-anchor="middle" pointer-events="none" y="5" font-size="10px" fill="#604A0E" font-family="sans-serif"> Sirikhola</text></g><g class="node" transform="translate(2.562435714325069,8.79417277287093)"><circle class="outline" cx="0" cy="0" r="25" fill="#D9C8AE" stroke="#c0a378" stroke-width="2px"/><text text-anchor="middle" pointer-events="none" font-family="sans-serif" dy="1.5625" font-size="25" fill="#604A0E"/><text text-anchor="middle" pointer-events="none" y="5" font-size="10px" fill="#604A0E" font-family="sans-serif"> Gurdum</text></g><g class="node" transform="translate(46.45280510350209,-73.1093111082399)"><circle class="outline" cx="0" cy="0" r="25" fill="#D9C8AE" stroke="#c0a378" stroke-width="2px"/><text text-anchor="middle" pointer-events="none" font-family="sans-serif" dy="1.5625" font-size="25" fill="#604A0E"/><text text-anchor="middle" pointer-events="none" y="5" font-size="10px" fill="#604A0E" font-family="sans-serif"> Rammam</text></g><g class="node" transform="translate(-57.435582582530024,6.77623514370283)"><circle class="outline" cx="0" cy="0" r="25" fill="#8DCC93" stroke="#5db665" stroke-width="2px"/><text text-anchor="middle" pointer-events="none" font-family="sans-serif" dy="1.5625" font-size="25" fill="#604A0E"/><text text-anchor="middle" pointer-events="none" y="5" font-size="10px" fill="#604A0E" font-family="sans-serif"> Sabargr…</text></g></g></svg>